<?xml version="1.0" standalone="no"?>
<!DOCTYPE svg PUBLIC "-//W3C//DTD SVG 20010904//EN"
 "http://www.w3.org/TR/2001/REC-SVG-20010904/DTD/svg10.dtd">
<svg version="1.0" xmlns="http://www.w3.org/2000/svg"
 width="512.000000pt" height="512.000000pt" viewBox="0 0 512.000000 512.000000"
 preserveAspectRatio="xMidYMid meet">
<metadata>
Created by potrace 1.14, written by Peter Selinger 2001-2017
</metadata>
<g transform="translate(0.000000,512.000000) scale(0.100000,-0.100000)"
fill="#000000" stroke="none">
<path d="M0 2560 l0 -2560 2560 0 2560 0 -1 1628 -1 1627 -22 -95 c-24 -106
-30 -120 -53 -120 -10 0 -13 5 -8 18 4 9 24 99 46 200 l39 183 -1 242 -1 242
-17 -69 c-9 -38 -21 -71 -27 -73 -6 -2 -22 5 -35 15 l-23 20 18 98 c11 55 21
106 24 114 4 12 2 13 -9 2 -8 -7 -23 -49 -34 -94 -25 -100 -49 -119 -39 -31
12 101 12 106 -20 121 -36 18 -305 74 -317 67 -9 -6 -21 -48 -39 -138 -7 -32
-14 -57 -16 -54 -5 5 24 155 36 185 14 33 46 30 365 -28 61 -10 116 -20 123
-20 21 0 15 66 -8 81 l-21 14 21 99 c11 54 20 106 20 115 -1 33 -17 -12 -35
-96 -20 -93 -32 -110 -66 -93 -18 10 -20 18 -15 48 17 99 18 148 5 158 -19 15
-72 24 -86 16 -7 -4 -21 -50 -32 -101 -17 -79 -31 -122 -31 -99 0 31 43 204
53 211 12 8 139 1 185 -10 l22 -5 0 371 0 371 -2560 0 -2560 0 0 -2560z m2721
2186 c145 -19 426 -56 624 -81 197 -25 362 -48 365 -51 3 -4 -67 -3 -155 1
-137 5 -157 4 -140 -7 11 -8 43 -15 70 -16 28 0 93 -8 145 -16 97 -16 163 -24
400 -51 74 -9 145 -20 158 -25 13 -6 44 -10 70 -11 26 0 88 -7 137 -15 50 -8
99 -15 110 -15 45 -2 247 -29 256 -34 5 -4 9 -14 9 -24 0 -21 -49 -213 -55
-220 -3 -2 -17 2 -32 9 -16 7 -64 14 -108 16 -148 8 -140 5 -140 55 1 24 4 67
8 94 8 48 7 49 -8 23 -8 -14 -21 -52 -29 -82 -18 -69 -24 -80 -39 -68 -7 5
-46 12 -88 15 -42 4 -89 11 -104 17 -30 11 -30 20 -9 130 12 60 -14 21 -35
-54 -21 -76 -25 -83 -43 -69 -7 6 -53 13 -102 17 -48 3 -93 9 -98 12 -10 6 -5
73 9 134 4 18 3 22 -6 15 -6 -6 -18 -41 -27 -78 -16 -63 -33 -83 -49 -57 -3 6
-16 8 -28 5 -12 -2 -53 1 -92 8 l-70 12 0 40 c0 22 3 56 7 75 7 34 7 34 -6 10
-8 -14 -17 -41 -21 -60 -12 -55 -24 -73 -40 -60 -8 6 -48 13 -90 14 -96 2
-117 17 -104 73 20 86 1 73 -21 -14 -10 -40 -31 -56 -44 -34 -3 4 -35 6 -71 4
-92 -5 -119 13 -111 76 l5 46 -16 -50 c-19 -61 -19 -61 -38 -45 -11 9 -33 10
-80 5 -63 -6 -67 -5 -91 20 -17 19 -23 34 -19 53 5 25 4 24 -6 -3 -6 -16 -13
-36 -15 -44 -3 -10 -7 -11 -18 -1 -8 6 -30 13 -48 15 -84 8 -130 19 -135 32
-5 12 9 108 23 154 3 12 -3 18 -26 21 -33 5 -32 8 -51 -87 -7 -33 -17 -65 -23
-72 -8 -8 -34 -7 -106 4 -52 8 -107 16 -122 16 -15 1 -30 7 -32 13 -8 20 32
177 47 186 8 4 18 19 21 33 8 33 6 33 327 -9z m1062 -143 c-7 -2 -21 -2 -30 0
-10 3 -4 5 12 5 17 0 24 -2 18 -5z m-1419 -89 c9 -3 16 -11 16 -18 1 -6 9 -21
20 -34 15 -19 39 -25 152 -42 73 -11 147 -22 164 -25 l31 -5 -20 -93 c-11 -50
-22 -95 -26 -100 -7 -7 -419 57 -428 67 -9 9 31 178 43 183 8 3 16 20 20 39 3
19 8 34 9 34 2 0 10 -3 19 -6z m-354 -98 c0 -2 -8 -10 -17 -17 -16 -13 -17
-12 -4 4 13 16 21 21 21 13z m949 -47 c36 -6 71 -15 76 -19 6 -5 37 -9 70 -9
33 0 83 -5 110 -11 58 -12 78 -15 203 -31 51 -7 95 -16 98 -20 3 -5 31 -9 62
-9 69 0 182 -18 197 -30 7 -5 38 -9 71 -9 71 0 171 -16 189 -31 7 -5 34 -9 61
-8 91 3 224 -23 224 -43 0 -5 -6 -20 -14 -32 -7 -12 -21 -56 -31 -97 -20 -85
-28 -98 -48 -82 -8 7 -17 9 -20 6 -11 -12 -179 20 -185 35 -3 8 2 52 12 99 28
135 3 118 -32 -22 -23 -87 -25 -92 -44 -80 -7 5 -22 9 -33 9 -56 1 -156 19
-165 30 -7 9 -6 34 5 84 18 85 19 109 5 95 -5 -5 -18 -44 -29 -86 -22 -91 -29
-104 -44 -89 -6 6 -27 11 -48 11 -45 0 -141 18 -151 28 -3 4 0 36 7 72 17 77
19 108 6 95 -5 -6 -17 -45 -26 -88 -18 -79 -29 -97 -48 -78 -6 6 -29 11 -51
11 -52 1 -125 15 -136 26 -5 5 -2 38 5 74 8 36 14 72 14 80 0 31 -18 -15 -34
-88 -16 -68 -33 -89 -50 -62 -4 6 -12 10 -18 9 -29 -5 -147 14 -157 26 -7 9
-6 34 5 85 20 97 12 102 -11 6 -21 -92 -27 -101 -50 -91 -11 4 -26 9 -34 10
-160 22 -155 17 -134 125 10 47 21 91 27 98 12 15 60 15 146 1z m-645 -125 c9
-3 16 -14 16 -23 1 -44 22 -52 242 -88 117 -20 216 -39 221 -43 6 -5 -13 -119
-29 -172 -3 -10 -15 -18 -28 -18 -20 0 -443 74 -491 86 -16 4 -15 2 4 -9 15
-9 20 -17 12 -21 -18 -12 -13 -36 8 -36 11 0 21 -5 23 -11 2 -5 24 -14 48 -20
25 -5 50 -11 56 -13 16 -6 -22 -177 -42 -193 -13 -10 -13 -12 6 -18 48 -15 8
-14 -83 4 -87 16 -97 16 -100 2 -3 -9 -5 -4 -6 10 l-1 26 58 -13 c31 -8 68
-13 82 -13 14 0 -13 10 -60 21 -47 12 -86 22 -87 23 -9 6 33 172 45 182 12 10
15 30 14 77 -2 78 21 186 43 198 8 5 15 22 15 38 0 31 6 35 34 24z m2186 -104
c36 -5 68 -10 73 -10 12 0 8 -27 -7 -39 -8 -7 -22 -44 -31 -84 -24 -97 -30
-107 -66 -107 -55 0 -168 23 -172 34 -3 7 4 58 15 113 25 125 16 120 188 93z
m-1474 -71 c32 -6 63 -15 69 -20 5 -5 32 -9 60 -9 62 0 166 -18 179 -31 6 -5
32 -9 60 -9 64 0 177 -19 195 -33 7 -7 27 -10 43 -8 48 5 197 -21 210 -36 9
-11 8 -20 -4 -41 -8 -15 -23 -62 -32 -104 l-17 -77 -52 5 c-85 7 -168 26 -174
40 -3 7 2 45 11 83 18 79 20 105 7 97 -5 -3 -16 -38 -26 -78 -26 -113 -25
-110 -43 -103 -10 4 -24 7 -32 7 -39 -2 -151 23 -161 35 -11 12 -5 66 18 162
4 16 2 22 -5 17 -6 -3 -18 -41 -28 -84 -20 -86 -31 -109 -48 -92 -5 5 -28 10
-50 10 -53 0 -118 18 -132 36 -8 10 -7 33 3 85 14 79 11 105 -6 40 -6 -23 -16
-59 -21 -81 l-11 -39 -52 4 c-96 7 -157 25 -157 45 0 30 32 164 43 178 12 15
74 16 153 1z m984 -164 c93 -16 122 -34 100 -60 -7 -8 -22 -50 -34 -92 -19
-69 -24 -77 -51 -85 -36 -10 -174 9 -193 26 -10 10 -8 31 8 110 11 54 20 100
20 101 0 3 28 10 55 14 6 0 48 -6 95 -14z m-2335 -34 c-3 -5 -19 -13 -36 -16
-92 -20 -243 -150 -346 -297 -51 -73 -73 -93 -73 -67 0 6 17 43 37 83 43 82
153 197 229 241 76 43 205 82 189 56z m2614 -12 c97 -15 98 -16 73 -42 -14
-15 -28 -52 -38 -102 -22 -111 -23 -112 -133 -90 -50 10 -94 21 -96 25 -5 8
31 195 41 211 7 12 73 11 153 -2z m-1710 -15 c47 -8 91 -17 97 -19 12 -3 -23
-176 -38 -190 -4 -4 -50 3 -102 16 -68 17 -96 28 -96 39 0 23 27 147 35 159 8
14 2 14 104 -5z m2128 -70 c147 -25 287 -48 311 -51 23 -3 44 -8 46 -12 5 -8
-43 -234 -52 -242 -10 -10 -52 8 -58 25 -3 8 4 57 15 110 12 53 21 97 21 99 0
2 -12 4 -27 4 -16 1 -86 13 -158 27 -266 55 -365 72 -373 67 -5 -3 -12 -13
-15 -21 -4 -11 -6 -9 -6 6 -1 21 7 34 20 34 4 0 128 -21 276 -46z m-1811 11
c42 -8 78 -16 79 -17 7 -8 -42 -182 -53 -186 -27 -9 -121 29 -146 58 l-25 30
-15 -27 c-20 -36 -20 -26 0 75 l17 82 32 0 c19 0 68 -7 111 -15z m399 -59 c99
-19 259 -49 355 -66 96 -18 193 -37 215 -42 l40 -10 -22 -18 c-12 -9 -25 -29
-28 -43 l-7 -26 -166 -5 c-92 -2 -174 -4 -182 -5 -50 -2 -421 18 -452 24 -45
9 -46 17 -20 135 15 64 20 75 42 81 38 11 33 11 225 -25z m1112 12 c-3 -8 -6
-5 -6 6 -1 11 2 17 5 13 3 -3 4 -12 1 -19z m-10 -50 c-3 -8 -6 -5 -6 6 -1 11
2 17 5 13 3 -3 4 -12 1 -19z m-10 -50 c-3 -7 -5 -2 -5 12 0 14 2 19 5 13 2 -7
2 -19 0 -25z m-1739 -33 c8 -8 -7 -6 -93 10 -44 9 -83 19 -88 24 -5 5 33 0 84
-10 51 -11 95 -21 97 -24z m155 -32 c-7 -2 -19 -2 -25 0 -7 3 -2 5 12 5 14 0
19 -2 13 -5z m1281 -9 c50 -9 94 -20 98 -23 5 -4 -2 -51 -14 -104 -23 -100
-33 -113 -68 -84 -11 9 -15 33 -15 92 l0 80 -45 23 c-54 27 -100 29 -100 5 0
-9 -3 -14 -6 -10 -14 13 7 37 32 37 14 0 67 -7 118 -16z m-1227 0 c-3 -3 -12
-4 -19 -1 -8 3 -5 6 6 6 11 1 17 -2 13 -5z m1588 -69 c49 -9 93 -19 97 -21 4
-3 3 -14 -2 -24 -6 -11 -19 -54 -29 -97 -12 -51 -23 -78 -32 -78 -11 0 -14 19
-14 85 0 47 -4 91 -8 97 -11 17 -143 57 -163 49 -9 -4 -12 -2 -8 5 4 7 20 9
38 6 17 -4 71 -13 121 -22z m-168 -27 c-3 -8 -6 -5 -6 6 -1 11 2 17 5 13 3 -3
4 -12 1 -19z m423 -22 c0 -2 -13 -6 -30 -8 -16 -3 -30 -1 -30 4 0 4 14 8 30 8
17 0 30 -2 30 -4z m-843 -28 c18 -17 23 -32 23 -71 0 -83 -8 -87 -177 -87
-118 0 -145 3 -149 15 -4 8 -12 15 -20 15 -10 0 -14 15 -14 59 0 86 10 91 179
91 125 0 136 -2 158 -22z m410 0 c-3 -8 -6 -5 -6 6 -1 11 2 17 5 13 3 -3 4
-12 1 -19z m608 -4 c39 -8 82 -14 98 -14 19 0 27 -5 27 -18 0 -32 -42 -217
-52 -229 -15 -19 -71 12 -64 35 11 33 36 164 36 183 0 17 -3 18 -20 9 -15 -8
-26 -7 -46 6 -14 10 -53 26 -87 36 l-62 18 50 -6 c28 -3 82 -12 120 -20z
m-3403 -1 c14 -13 18 -31 18 -90 0 -58 3 -73 15 -73 12 0 15 14 15 68 0 100
12 112 107 112 103 0 113 -9 113 -107 0 -58 3 -73 15 -73 12 0 15 15 15 72 0
98 10 108 111 108 115 0 109 20 109 -354 0 -383 12 -356 -157 -356 -102 0
-116 2 -136 21 -12 12 -32 28 -45 37 -22 14 -25 13 -60 -21 l-38 -37 -110 0
c-108 0 -111 1 -137 28 l-27 28 0 309 c0 364 -6 345 103 345 52 0 75 -4 89
-17z m1242 -2 c16 -18 17 -49 16 -338 -1 -264 -3 -320 -15 -333 -22 -21 -247
-16 -292 8 -32 16 -33 18 -33 84 0 54 -3 68 -15 68 -12 0 -15 -15 -15 -74 0
-54 -4 -77 -15 -86 -24 -20 -260 -14 -297 8 l-28 16 0 315 c0 279 2 317 17
333 15 17 39 18 338 18 305 0 323 -1 339 -19z m758 2 c16 -14 18 -33 18 -156
0 -115 -3 -144 -16 -158 -15 -16 -15 -20 0 -41 13 -18 16 -50 16 -159 0 -121
-2 -138 -19 -153 -18 -16 -48 -18 -331 -16 -278 1 -315 3 -336 18 l-23 17 -1
321 c0 236 3 323 12 332 9 9 97 12 337 12 288 0 326 -2 343 -17z m785 -45 c-3
-8 -6 -5 -6 6 -1 11 2 17 5 13 3 -3 4 -12 1 -19z m-3097 -158 c-14 -10 -37
-29 -52 -40 -16 -12 -28 -31 -28 -42 0 -12 -7 -30 -17 -40 -15 -17 -25 -55
-38 -158 -11 -81 -15 -88 -53 -110 -21 -12 -44 -30 -50 -41 -11 -17 -9 -19 13
-19 35 0 31 -12 -15 -56 -38 -36 -40 -41 -40 -96 l0 -58 -25 16 c-14 9 -39 46
-57 82 -31 63 -33 73 -33 172 1 86 5 116 24 162 33 84 107 161 195 202 76 37
98 43 161 44 l40 1 -25 -19z m2702 -7 c16 -15 18 -35 18 -226 0 -182 -2 -213
-17 -229 -14 -16 -33 -18 -150 -18 -122 0 -136 2 -163 22 l-30 22 0 205 c0
176 2 207 17 223 14 16 33 18 161 18 121 0 148 -3 164 -17z m416 -22 c7 -4 18
-26 23 -47 16 -67 23 -303 10 -384 -12 -77 -49 -205 -58 -197 -2 3 0 55 6 116
13 124 1 344 -24 444 -8 32 -15 63 -15 68 0 11 40 12 58 0z m-421 -523 c18
-17 23 -32 23 -73 0 -82 -11 -88 -175 -87 -168 1 -184 9 -185 89 0 44 4 55 26
72 24 19 40 21 157 21 120 0 133 -2 154 -22z m-1885 -5 c14 -12 18 -31 18 -84
0 -85 -15 -99 -107 -99 -49 0 -63 -3 -63 -15 0 -12 14 -15 67 -15 105 0 103 5
103 -238 0 -177 -2 -208 -17 -224 -15 -17 -39 -18 -329 -18 l-312 0 -26 31
c-20 23 -26 42 -26 78 0 70 12 80 100 83 62 3 75 6 78 21 3 15 -5 17 -65 17
-66 0 -69 1 -90 33 -22 32 -23 43 -23 222 0 161 2 191 17 207 15 17 39 18 336
18 284 0 322 -2 339 -17z m742 -2 c16 -18 17 -49 16 -337 -1 -278 -3 -321 -17
-336 -14 -16 -34 -18 -142 -18 -119 1 -128 2 -153 25 -25 22 -28 31 -28 90 0
49 -3 66 -12 63 -8 -3 -14 -30 -16 -74 -4 -101 -8 -104 -159 -104 -112 0 -127
2 -153 22 l-30 22 0 315 c0 279 2 317 17 333 15 17 39 18 338 18 305 0 323 -1
339 -19z m760 -3 c23 -32 23 -290 1 -308 -8 -7 -15 -18 -15 -25 0 -7 7 -18 15
-25 12 -10 15 -40 15 -149 0 -195 31 -179 -350 -179 -287 0 -306 1 -332 20
l-28 19 0 323 c0 237 3 325 12 334 9 9 98 12 339 12 327 0 328 0 343 -22z
m388 -205 c16 -15 18 -35 18 -228 0 -266 13 -248 -172 -246 -100 2 -137 6
-149 17 -8 7 -21 14 -27 14 -9 0 -12 57 -12 212 0 183 2 214 17 230 14 16 33
18 161 18 121 0 148 -3 164 -17z m-3114 -347 c35 -18 75 -62 96 -104 32 -63
10 -54 -34 15 -36 54 -53 70 -83 80 -45 15 -94 0 -121 -38 l-16 -23 0 22 c0
48 99 79 158 48z m271 -230 c18 -16 30 -17 96 -11 71 6 75 6 75 -13 0 -23 -1
-23 -320 -47 -113 -9 -223 -20 -245 -25 -58 -14 -59 -13 -27 21 28 30 36 32
121 39 78 7 95 12 123 35 29 24 38 27 94 23 43 -3 69 -10 83 -22z m-521 -145
c-50 -32 -82 -71 -103 -128 -7 -21 -14 -31 -14 -23 -1 17 32 87 51 111 17 21
88 69 101 69 6 0 -10 -13 -35 -29z m253 -127 c8 -9 28 -44 44 -77 l30 -62 71
3 c77 4 109 -6 117 -37 9 -37 -29 -61 -98 -61 -53 0 -53 0 -9 -93 25 -55 21
-77 -17 -97 -36 -20 -59 -2 -97 78 l-37 77 -87 -4 c-84 -3 -87 -2 -103 23 -16
24 -16 28 -1 51 16 24 25 28 99 40 41 7 42 15 11 77 -17 33 -18 70 -2 86 17
17 63 15 79 -4z m734 6 c3 -5 -2 -10 -12 -10 -11 0 -24 -5 -31 -12 -8 -8 -15
-8 -28 2 -15 13 -14 15 3 21 27 11 61 10 68 -1z m193 -80 c35 -33 29 -52 -15
-47 -21 1 -46 8 -57 14 -15 8 -16 14 -7 32 15 27 51 27 79 1z m-278 -15 c55
-29 48 -95 -10 -95 -26 0 -80 39 -80 59 0 9 47 51 57 51 2 0 17 -7 33 -15z
m405 -157 c-11 -63 -20 -51 -16 20 3 55 5 63 13 42 5 -13 6 -41 3 -62z m-40
-10 c-8 -18 -13 -25 -10 -15 3 10 5 33 5 50 1 26 2 29 11 15 7 -12 5 -27 -6
-50z m-135 15 c11 -14 19 -31 17 -37 -6 -19 -86 -14 -104 6 -15 17 -15 20 2
38 25 28 60 25 85 -7z m396 -289 c37 -125 39 -249 4 -319 -45 -89 -66 -68 -44
46 18 94 18 126 -1 235 -11 62 -29 115 -58 175 -36 72 -42 93 -38 130 l4 44
53 -111 c29 -61 65 -151 80 -200z m-959 224 c-3 -8 -6 -5 -6 6 -1 11 2 17 5
13 3 -3 4 -12 1 -19z m24 -75 c-20 -40 -44 -65 -65 -70 -6 -1 -22 -5 -36 -9
-24 -7 -24 -6 7 27 18 19 42 52 53 74 12 22 18 31 15 20 -4 -11 -9 -33 -11
-50 l-5 -30 20 23 c11 13 24 40 28 60 5 27 8 31 11 15 2 -12 -6 -39 -17 -60z
m669 8 c68 -54 97 -126 74 -186 -8 -20 -56 -45 -88 -45 -15 0 -27 -7 -30 -17
-3 -10 -26 -26 -50 -36 -37 -15 -49 -16 -68 -6 -86 44 -129 108 -106 157 7 15
28 35 47 44 19 10 36 25 37 35 8 49 17 65 47 79 43 19 93 9 137 -25z m-473
-52 c77 -37 125 -126 104 -192 -12 -34 -55 -67 -89 -67 -11 0 -27 -11 -36 -25
-23 -35 -62 -58 -97 -57 -65 2 -149 85 -149 148 0 38 31 79 65 88 21 5 25 12
25 40 0 26 8 41 31 60 38 32 86 34 146 5z m-1042 -571 c-18 -115 -29 -145 -41
-114 -10 27 39 246 53 232 3 -3 -3 -56 -12 -118z"/>
<path d="M2360 3165 c0 -69 3 -85 15 -85 12 0 15 16 15 85 0 69 -3 85 -15 85
-12 0 -15 -16 -15 -85z"/>
<path d="M3114 3203 c3 -25 9 -49 12 -52 10 -10 24 24 24 62 0 31 -3 37 -21
37 -20 0 -21 -4 -15 -47z"/>
<path d="M3115 3000 c-9 -15 4 -100 15 -100 13 0 22 41 18 76 -3 29 -22 43
-33 24z"/>
<path d="M2360 2400 c0 -73 3 -90 15 -90 12 0 15 17 15 90 0 73 -3 90 -15 90
-12 0 -15 -17 -15 -90z"/>
<path d="M3115 2480 c-9 -14 4 -90 15 -90 12 0 20 27 20 66 0 34 -21 47 -35
24z"/>
<path d="M3114 2193 c3 -25 9 -49 12 -52 10 -10 24 24 24 62 0 31 -3 37 -21
37 -20 0 -21 -4 -15 -47z"/>
</g>
</svg>
